<svg id="Capa_1" enable-background="new 0 0 512 512" height="512" viewBox="0 0 512 512" width="512" xmlns="http://www.w3.org/2000/svg"><path fill = "#fff" d="m333.789 130.263h-30v47.926h-47.927v30h47.927v47.927h30v-47.927h47.926v-30h-47.926z"/><path fill = "#fff" d="m455.866 56.112c-36.184-36.184-84.294-56.112-135.466-56.112s-99.282 19.928-135.466 56.112c-36.185 36.184-56.112 84.293-56.112 135.466 0 46.14 16.206 89.785 45.917 124.448l-20.195 20.195-28.955-28.955-109.172 109.172c-10.573 10.573-16.396 24.63-16.396 39.583s5.823 29.01 16.396 39.583 24.631 16.396 39.583 16.396 29.01-5.823 39.583-16.396l109.173-109.172-28.999-28.999 20.195-20.195c34.663 29.71 78.308 45.917 124.448 45.917 51.172 0 99.282-19.928 135.466-56.112 36.185-36.184 56.112-84.293 56.112-135.466s-19.927-99.281-56.112-135.465zm-381.496 418.279c-4.907 4.907-11.431 7.609-18.37 7.609s-13.463-2.702-18.37-7.609-7.609-11.431-7.609-18.37 2.702-13.463 7.609-18.37l42.727-42.727 36.74 36.74zm63.94-63.94-36.74-36.74 24.019-24.019 36.74 36.74zm296.343-104.62c-30.519 30.518-71.094 47.325-114.253 47.325s-83.735-16.807-114.253-47.325-47.325-71.094-47.325-114.253 16.807-83.735 47.325-114.253 71.094-47.325 114.253-47.325 83.735 16.807 114.253 47.325 47.325 71.094 47.325 114.253-16.807 83.735-47.325 114.253z"/><path  fill = "#fff" d="m412.732 99.246c-24.663-24.663-57.454-38.246-92.332-38.246s-67.669 13.583-92.333 38.246c-50.912 50.913-50.912 133.753 0 184.665 24.663 24.663 57.454 38.246 92.333 38.246s67.67-13.583 92.332-38.246c24.628-24.628 38.192-57.419 38.192-92.333s-13.564-67.704-38.192-92.332zm-21.213 163.452c-18.996 18.997-44.253 29.458-71.119 29.458-26.865 0-52.123-10.462-71.12-29.458-39.215-39.215-39.215-103.023 0-142.239 18.997-18.997 44.255-29.459 71.12-29.459s52.122 10.462 71.119 29.458c18.962 18.962 29.405 44.219 29.405 71.12s-10.443 52.158-29.405 71.12z"/></svg>